<?xml version="1.0" encoding="UTF-8" standalone="no"?>
<!DOCTYPE svg PUBLIC "-//W3C//DTD SVG 1.1//EN"
 "http://www.w3.org/Graphics/SVG/1.1/DTD/svg11.dtd">
<!-- Generated by graphviz version 2.44.0 (20200408.0750)
 -->
<!-- Title: dependency&#45;cruiser output Pages: 1 -->
<svg width="395pt" height="138pt"
 viewBox="0.00 0.00 394.51 138.00" xmlns="http://www.w3.org/2000/svg" xmlns:xlink="http://www.w3.org/1999/xlink">
<g id="graph0" class="graph" transform="scale(1 1) rotate(0) translate(4 134)">
<title>dependency&#45;cruiser output</title>
<polygon fill="white" stroke="transparent" points="-4,4 -4,-134 390.51,-134 390.51,4 -4,4"/>
<g id="clust1" class="cluster">
<title>cluster_src</title>
<path fill="#ffffff" stroke="black" stroke-width="2" d="M20,-8C20,-8 366.51,-8 366.51,-8 372.51,-8 378.51,-14 378.51,-20 378.51,-20 378.51,-110 378.51,-110 378.51,-116 372.51,-122 366.51,-122 366.51,-122 20,-122 20,-122 14,-122 8,-116 8,-110 8,-110 8,-20 8,-20 8,-14 14,-8 20,-8"/>
<text text-anchor="middle" x="193.25" y="-109.9" font-family="Helvetica,sans-Serif" font-weight="bold" font-size="9.00">src</text>
</g>
<g id="clust2" class="cluster">
<title>cluster_src/handlers</title>
<path fill="#ffffff" stroke="black" stroke-width="2" d="M207.99,-42C207.99,-42 269.99,-42 269.99,-42 275.99,-42 281.99,-48 281.99,-54 281.99,-54 281.99,-83 281.99,-83 281.99,-89 275.99,-95 269.99,-95 269.99,-95 207.99,-95 207.99,-95 201.99,-95 195.99,-89 195.99,-83 195.99,-83 195.99,-54 195.99,-54 195.99,-48 201.99,-42 207.99,-42"/>
<text text-anchor="middle" x="238.99" y="-82.9" font-family="Helvetica,sans-Serif" font-weight="bold" font-size="9.00">handlers</text>
</g>
<g id="clust3" class="cluster">
<title>cluster_src/init</title>
<path fill="#ffffff" stroke="black" stroke-width="2" d="M28,-42C28,-42 74,-42 74,-42 80,-42 86,-48 86,-54 86,-54 86,-83 86,-83 86,-89 80,-95 74,-95 74,-95 28,-95 28,-95 22,-95 16,-89 16,-83 16,-83 16,-54 16,-54 16,-48 22,-42 28,-42"/>
<text text-anchor="middle" x="51" y="-82.9" font-family="Helvetica,sans-Serif" font-weight="bold" font-size="9.00">init</text>
</g>
<g id="clust4" class="cluster">
<title>cluster_src/listeners</title>
<path fill="#ffffff" stroke="black" stroke-width="2" d="M106,-42C106,-42 175.99,-42 175.99,-42 181.99,-42 187.99,-48 187.99,-54 187.99,-54 187.99,-83 187.99,-83 187.99,-89 181.99,-95 175.99,-95 175.99,-95 106,-95 106,-95 100,-95 94,-89 94,-83 94,-83 94,-54 94,-54 94,-48 100,-42 106,-42"/>
<text text-anchor="middle" x="140.99" y="-82.9" font-family="Helvetica,sans-Serif" font-weight="bold" font-size="9.00">listeners</text>
</g>
<g id="clust5" class="cluster">
<title>cluster_src/procedures</title>
<path fill="#ffffff" stroke="black" stroke-width="2" d="M301.99,-42C301.99,-42 358.51,-42 358.51,-42 364.51,-42 370.51,-48 370.51,-54 370.51,-54 370.51,-83 370.51,-83 370.51,-89 364.51,-95 358.51,-95 358.51,-95 301.99,-95 301.99,-95 295.99,-95 289.99,-89 289.99,-83 289.99,-83 289.99,-54 289.99,-54 289.99,-48 295.99,-42 301.99,-42"/>
<text text-anchor="middle" x="330.25" y="-82.9" font-family="Helvetica,sans-Serif" font-weight="bold" font-size="9.00">procedures</text>
</g>
<!-- src/data.js -->
<g id="node1" class="node">
<title>src/data.js</title>
<g id="a_node1"><a xlink:href="../src/data.js" xlink:title="data.js">
<path fill="#ccffcc" stroke="black" d="M71.8,-34.3C71.8,-34.3 30.2,-34.3 30.2,-34.3 27.1,-34.3 24,-31.2 24,-28.1 24,-28.1 24,-21.9 24,-21.9 24,-18.8 27.1,-15.7 30.2,-15.7 30.2,-15.7 71.8,-15.7 71.8,-15.7 74.9,-15.7 78,-18.8 78,-21.9 78,-21.9 78,-28.1 78,-28.1 78,-31.2 74.9,-34.3 71.8,-34.3"/>
<text text-anchor="middle" x="51" y="-22.3" font-family="Helvetica,sans-Serif" font-size="9.00">data.js</text>
</a>
</g>
</g>
<!-- src/handlers/check&#45;slide.js -->
<g id="node2" class="node">
<title>src/handlers/check&#45;slide.js</title>
<g id="a_node2"><a xlink:href="../src/handlers/check-slide.js" xlink:title="check&#45;slide.js">
<path fill="#ffffcc" stroke="black" d="M267.79,-68.3C267.79,-68.3 210.19,-68.3 210.19,-68.3 207.09,-68.3 203.99,-65.2 203.99,-62.1 203.99,-62.1 203.99,-55.9 203.99,-55.9 203.99,-52.8 207.09,-49.7 210.19,-49.7 210.19,-49.7 267.79,-49.7 267.79,-49.7 270.89,-49.7 273.99,-52.8 273.99,-55.9 273.99,-55.9 273.99,-62.1 273.99,-62.1 273.99,-65.2 270.89,-68.3 267.79,-68.3"/>
<text text-anchor="middle" x="238.99" y="-56.3" font-family="Helvetica,sans-Serif" font-size="9.00">check&#45;slide.js</text>
</a>
</g>
</g>
<!-- src/procedures/debounce.js -->
<g id="node3" class="node">
<title>src/procedures/debounce.js</title>
<g id="a_node3"><a xlink:href="../src/procedures/debounce.js" xlink:title="debounce.js">
<path fill="#ffffcc" stroke="black" d="M356.07,-68.3C356.07,-68.3 304.43,-68.3 304.43,-68.3 301.33,-68.3 298.23,-65.2 298.23,-62.1 298.23,-62.1 298.23,-55.9 298.23,-55.9 298.23,-52.8 301.33,-49.7 304.43,-49.7 304.43,-49.7 356.07,-49.7 356.07,-49.7 359.17,-49.7 362.27,-52.8 362.27,-55.9 362.27,-55.9 362.27,-62.1 362.27,-62.1 362.27,-65.2 359.17,-68.3 356.07,-68.3"/>
<text text-anchor="middle" x="330.25" y="-56.3" font-family="Helvetica,sans-Serif" font-size="9.00">debounce.js</text>
</a>
</g>
</g>
<!-- src/handlers/check&#45;slide.js&#45;&gt;src/procedures/debounce.js -->
<g id="edge1" class="edge">
<title>src/handlers/check&#45;slide.js&#45;&gt;src/procedures/debounce.js</title>
<path fill="none" stroke="#000000" stroke-width="2" stroke-opacity="0.200000" d="M274.24,-59C280.02,-59 286.04,-59 291.89,-59"/>
<polygon fill="#000000" fill-opacity="0.200000" stroke="#000000" stroke-width="2" stroke-opacity="0.200000" points="292.16,-61.1 298.16,-59 292.16,-56.9 292.16,-61.1"/>
</g>
<!-- src/init/index.js -->
<g id="node4" class="node">
<title>src/init/index.js</title>
<g id="a_node4"><a xlink:href="../src/init/index.js" xlink:title="index.js">
<path fill="#ffffcc" stroke="black" d="M71.8,-68.3C71.8,-68.3 30.2,-68.3 30.2,-68.3 27.1,-68.3 24,-65.2 24,-62.1 24,-62.1 24,-55.9 24,-55.9 24,-52.8 27.1,-49.7 30.2,-49.7 30.2,-49.7 71.8,-49.7 71.8,-49.7 74.9,-49.7 78,-52.8 78,-55.9 78,-55.9 78,-62.1 78,-62.1 78,-65.2 74.9,-68.3 71.8,-68.3"/>
<text text-anchor="middle" x="51" y="-56.3" font-family="Helvetica,sans-Serif" font-size="9.00">index.js</text>
</a>
</g>
</g>
<!-- src/listeners/scroll&#45;listener.js -->
<g id="node5" class="node">
<title>src/listeners/scroll&#45;listener.js</title>
<g id="a_node5"><a xlink:href="../src/listeners/scroll-listener.js" xlink:title="scroll&#45;listener.js">
<path fill="#ffffcc" stroke="black" d="M173.78,-68.3C173.78,-68.3 108.21,-68.3 108.21,-68.3 105.11,-68.3 102.01,-65.2 102.01,-62.1 102.01,-62.1 102.01,-55.9 102.01,-55.9 102.01,-52.8 105.11,-49.7 108.21,-49.7 108.21,-49.7 173.78,-49.7 173.78,-49.7 176.88,-49.7 179.98,-52.8 179.98,-55.9 179.98,-55.9 179.98,-62.1 179.98,-62.1 179.98,-65.2 176.88,-68.3 173.78,-68.3"/>
<text text-anchor="middle" x="140.99" y="-56.3" font-family="Helvetica,sans-Serif" font-size="9.00">scroll&#45;listener.js</text>
</a>
</g>
</g>
<!-- src/init/index.js&#45;&gt;src/listeners/scroll&#45;listener.js -->
<g id="edge2" class="edge">
<title>src/init/index.js&#45;&gt;src/listeners/scroll&#45;listener.js</title>
<path fill="none" stroke="#000000" stroke-width="2" stroke-opacity="0.200000" d="M78.4,-59C83.83,-59 89.68,-59 95.55,-59"/>
<polygon fill="#000000" fill-opacity="0.200000" stroke="#000000" stroke-width="2" stroke-opacity="0.200000" points="95.9,-61.1 101.9,-59 95.9,-56.9 95.9,-61.1"/>
</g>
<!-- src/listeners/scroll&#45;listener.js&#45;&gt;src/handlers/check&#45;slide.js -->
<g id="edge3" class="edge">
<title>src/listeners/scroll&#45;listener.js&#45;&gt;src/handlers/check&#45;slide.js</title>
<path fill="none" stroke="#000000" stroke-width="2" stroke-opacity="0.200000" d="M180.21,-59C185.97,-59 191.92,-59 197.73,-59"/>
<polygon fill="#000000" fill-opacity="0.200000" stroke="#000000" stroke-width="2" stroke-opacity="0.200000" points="197.94,-61.1 203.94,-59 197.94,-56.9 197.94,-61.1"/>
</g>
</g>
</svg>
